# This file uses centimeters as units for non-parametric coordinates.

mtllib Pillar.mtl
g default
v -0.500000 -0.001263 0.500000
v 0.500000 -0.001263 0.500000
v -0.500000 2.310468 0.500000
v 0.500000 2.310468 0.500000
v -0.500000 2.310468 -0.500000
v 0.500000 2.310468 -0.500000
v -0.500000 -0.001263 -0.500000
v 0.500000 -0.001263 -0.500000
v 0.500000 1.932206 -0.500000
v -0.500000 1.932206 -0.500000
v -0.500000 1.932206 0.500000
v 0.500000 1.932206 0.500000
v 0.500000 1.746518 -0.500000
v -0.500000 1.746518 -0.500000
v -0.500000 1.746518 0.500000
v 0.500000 1.746518 0.500000
v 0.500000 0.327038 -0.500000
v -0.500000 0.327038 -0.500000
v -0.500000 0.327038 0.500000
v 0.500000 0.327038 0.500000
v 0.500000 0.126331 -0.500000
v -0.500000 0.126331 -0.500000
v -0.500000 0.126331 0.500000
v 0.500000 0.126331 0.500000
v 0.597396 1.932206 -0.597396
v -0.597396 1.932206 -0.597396
v 0.597396 1.746518 -0.597396
v -0.597396 1.746518 -0.597396
v -0.597396 1.746518 0.597396
v -0.597396 1.932206 0.597396
v 0.597396 1.746518 0.597396
v 0.597396 1.932206 0.597396
v 0.597396 0.327038 -0.597396
v -0.597396 0.327038 -0.597396
v 0.597396 0.126331 -0.597396
v -0.597396 0.126331 -0.597396
v -0.597396 0.126331 0.597396
v -0.597396 0.327038 0.597396
v 0.597396 0.126331 0.597396
v 0.597396 0.327038 0.597396
v -0.153757 2.745111 0.173349
v 0.153757 2.745111 0.173349
v 0.153757 2.745111 -0.173349
v -0.153757 2.745111 -0.173349
v 0.502863 1.604409 -0.394801
v -0.502863 1.604409 -0.394801
v 0.502863 0.469147 -0.394801
v -0.502863 0.469147 -0.394801
v -0.502863 0.469147 0.394801
v -0.502863 1.604409 0.394801
v 0.502863 0.469147 0.394801
v 0.502863 1.604409 0.394801
v 0.387856 1.482625 -0.394801
v -0.387856 1.482625 -0.394801
v 0.387856 0.590930 -0.394801
v -0.387856 0.590930 -0.394801
v 0.387856 1.482625 -0.452218
v -0.387856 1.482625 -0.452218
v 0.387856 0.590930 -0.452218
v -0.387856 0.590930 -0.452218
vt 0.375000 0.000000
vt 0.625000 0.000000
vt 0.375000 0.250000
vt 0.625000 0.250000
vt 0.375000 0.500000
vt 0.625000 0.500000
vt 0.375000 0.750000
vt 0.625000 0.750000
vt 0.375000 1.000000
vt 0.625000 1.000000
vt 0.875000 0.000000
vt 0.875000 0.250000
vt 0.125000 0.000000
vt 0.125000 0.250000
vt 0.625000 0.540907
vt 0.875000 0.209093
vt 0.125000 0.209093
vt 0.375000 0.540907
vt 0.375000 0.209093
vt 0.625000 0.209093
vt 0.625000 0.560988
vt 0.875000 0.189012
vt 0.125000 0.189012
vt 0.375000 0.560988
vt 0.375000 0.189012
vt 0.625000 0.189012
vt 0.625000 0.714496
vt 0.875000 0.035504
vt 0.125000 0.035504
vt 0.375000 0.714496
vt 0.375000 0.035504
vt 0.625000 0.035504
vt 0.625000 0.736201
vt 0.875000 0.013799
vt 0.125000 0.013799
vt 0.375000 0.736201
vt 0.375000 0.013799
vt 0.625000 0.013799
vt 0.375000 0.540907
vt 0.625000 0.540907
vt 0.625000 0.560988
vt 0.375000 0.560988
vt 0.125000 0.189012
vt 0.375000 0.189012
vt 0.375000 0.209093
vt 0.125000 0.209093
vt 0.625000 0.189012
vt 0.625000 0.209093
vt 0.875000 0.189012
vt 0.875000 0.209093
vt 0.375000 0.714496
vt 0.625000 0.714496
vt 0.625000 0.736201
vt 0.375000 0.736201
vt 0.125000 0.013799
vt 0.375000 0.013799
vt 0.375000 0.035504
vt 0.125000 0.035504
vt 0.625000 0.013799
vt 0.625000 0.035504
vt 0.875000 0.013799
vt 0.875000 0.035504
vt 0.375000 0.250000
vt 0.625000 0.250000
vt 0.625000 0.500000
vt 0.375000 0.500000
vt 0.375000 0.560988
vt 0.625000 0.560988
vt 0.625000 0.714496
vt 0.375000 0.714496
vt 0.125000 0.035504
vt 0.375000 0.035504
vt 0.375000 0.189012
vt 0.125000 0.189012
vt 0.625000 0.035504
vt 0.625000 0.189012
vt 0.875000 0.035504
vt 0.875000 0.189012
vt 0.375000 0.560988
vt 0.625000 0.560988
vt 0.625000 0.714496
vt 0.375000 0.714496
vt 0.375000 0.560988
vt 0.625000 0.560988
vt 0.625000 0.714496
vt 0.375000 0.714496
vn 0.000000 0.000000 1.000000
vn 0.000000 0.000000 1.000000
vn 0.000000 0.208451 0.978033
vn 0.000000 0.208451 0.978033
vn 0.000000 1.000000 0.000000
vn 0.000000 1.000000 0.000000
vn 0.000000 1.000000 0.000000
vn 0.000000 1.000000 0.000000
vn 0.000000 0.208451 -0.978033
vn 0.000000 0.208451 -0.978033
vn 0.000000 0.000000 -1.000000
vn 0.000000 0.000000 -1.000000
vn 0.000000 -1.000000 0.000000
vn 0.000000 -1.000000 0.000000
vn 0.000000 -1.000000 0.000000
vn 0.000000 -1.000000 0.000000
vn 1.000000 0.000000 0.000000
vn 1.000000 0.000000 0.000000
vn 0.972252 0.233936 0.000000
vn 0.972252 0.233936 0.000000
vn -1.000000 0.000000 0.000000
vn -1.000000 0.000000 0.000000
vn -0.972252 0.233936 0.000000
vn -0.972252 0.233936 0.000000
vn 0.000000 0.000000 -1.000000
vn 0.000000 0.000000 -1.000000
vn 0.000000 0.000000 -1.000000
vn 0.000000 0.000000 -1.000000
vn -1.000000 0.000000 0.000000
vn -1.000000 0.000000 0.000000
vn -1.000000 0.000000 0.000000
vn -1.000000 0.000000 0.000000
vn 0.000000 0.000000 1.000000
vn 0.000000 0.000000 1.000000
vn 0.000000 0.000000 1.000000
vn 0.000000 0.000000 1.000000
vn 1.000000 0.000000 0.000000
vn 1.000000 0.000000 0.000000
vn 1.000000 0.000000 0.000000
vn 1.000000 0.000000 0.000000
vn 0.000000 0.000000 -1.000000
vn 0.000000 0.000000 -1.000000
vn 0.000000 0.000000 -1.000000
vn 0.000000 0.000000 -1.000000
vn -1.000000 0.000000 0.000000
vn -1.000000 0.000000 0.000000
vn -1.000000 0.000000 0.000000
vn -1.000000 0.000000 0.000000
vn 0.000000 0.000000 1.000000
vn 0.000000 0.000000 1.000000
vn 0.000000 0.000000 1.000000
vn 0.000000 0.000000 1.000000
vn 1.000000 0.000000 0.000000
vn 1.000000 0.000000 0.000000
vn 1.000000 0.000000 0.000000
vn 1.000000 0.000000 0.000000
vn 0.000000 0.000000 -1.000000
vn 0.000000 0.000000 -1.000000
vn 0.000000 0.000000 -1.000000
vn 0.000000 0.000000 -1.000000
vn -1.000000 0.000000 0.000000
vn -1.000000 0.000000 0.000000
vn -1.000000 0.000000 0.000000
vn -1.000000 0.000000 0.000000
vn 0.000000 0.000000 1.000000
vn 0.000000 0.000000 1.000000
vn 0.000000 0.000000 1.000000
vn 0.000000 0.000000 1.000000
vn 1.000000 0.000000 0.000000
vn 1.000000 0.000000 0.000000
vn 1.000000 0.000000 0.000000
vn 1.000000 0.000000 0.000000
vn 0.000000 0.000000 -1.000000
vn 0.000000 0.000000 -1.000000
vn 0.000000 0.000000 -1.000000
vn 0.000000 0.000000 -1.000000
vn -1.000000 0.000000 0.000000
vn -1.000000 0.000000 0.000000
vn -1.000000 0.000000 0.000000
vn -1.000000 0.000000 0.000000
vn 0.000000 0.000000 1.000000
vn 0.000000 0.000000 1.000000
vn 0.000000 0.000000 1.000000
vn 0.000000 0.000000 1.000000
vn 1.000000 0.000000 0.000000
vn 1.000000 0.000000 0.000000
vn 1.000000 0.000000 0.000000
vn 1.000000 0.000000 0.000000
vn 0.000000 1.000000 0.000000
vn 0.000000 1.000000 0.000000
vn 0.000000 1.000000 0.000000
vn 0.000000 1.000000 0.000000
vn 0.000000 -1.000000 0.000000
vn 0.000000 -1.000000 0.000000
vn 0.000000 -1.000000 0.000000
vn 0.000000 -1.000000 0.000000
vn 0.000000 -1.000000 -0.000000
vn 0.000000 -1.000000 -0.000000
vn 0.000000 1.000000 -0.000000
vn 0.000000 1.000000 -0.000000
vn 0.000000 -1.000000 -0.000000
vn 0.000000 -1.000000 -0.000000
vn 0.000000 1.000000 -0.000000
vn 0.000000 1.000000 -0.000000
vn 0.000000 1.000000 -0.000000
vn 0.000000 1.000000 -0.000000
vn 0.000000 1.000000 -0.000000
vn 0.000000 1.000000 -0.000000
vn 0.000000 -1.000000 -0.000000
vn 0.000000 -1.000000 -0.000000
vn 0.000000 -1.000000 -0.000000
vn 0.000000 -1.000000 -0.000000
vn 0.000000 -1.000000 0.000000
vn 0.000000 -1.000000 0.000000
vn 0.000000 1.000000 0.000000
vn 0.000000 1.000000 0.000000
vn 0.000000 -1.000000 0.000000
vn 0.000000 -1.000000 0.000000
vn 0.000000 1.000000 0.000000
vn 0.000000 1.000000 0.000000
vn 0.000000 0.600787 0.799409
vn 0.000000 0.600787 0.799409
vn 0.782158 0.623080 0.000000
vn 0.782158 0.623080 0.000000
vn 0.000000 0.600787 -0.799409
vn 0.000000 0.600787 -0.799409
vn -0.782158 0.623080 0.000000
vn -0.782158 0.623080 0.000000
vn 0.000000 -0.594985 -0.803737
vn 0.000000 -0.594985 -0.803737
vn 0.000000 -0.594985 -0.803737
vn 0.000000 -0.594985 -0.803737
vn 0.000000 0.594985 -0.803737
vn 0.000000 0.594985 -0.803737
vn 0.000000 0.594985 -0.803737
vn 0.000000 0.594985 -0.803737
vn -0.999797 -0.020142 0.000000
vn -0.999797 -0.020142 0.000000
vn -0.999797 -0.020142 0.000000
vn -0.999797 -0.020142 0.000000
vn -0.999797 0.020142 0.000000
vn -0.999797 0.020142 0.000000
vn -0.999797 0.020142 0.000000
vn -0.999797 0.020142 0.000000
vn 0.000000 0.594985 0.803737
vn 0.000000 0.594985 0.803737
vn 0.000000 0.594985 0.803737
vn 0.000000 0.594985 0.803737
vn 0.000000 -0.594985 0.803737
vn 0.000000 -0.594985 0.803737
vn 0.000000 -0.594985 0.803737
vn 0.000000 -0.594985 0.803737
vn 0.999797 -0.020142 0.000000
vn 0.999797 -0.020142 0.000000
vn 0.999797 -0.020142 0.000000
vn 0.999797 -0.020142 0.000000
vn 0.999797 0.020142 0.000000
vn 0.999797 0.020142 0.000000
vn 0.999797 0.020142 0.000000
vn 0.999797 0.020142 0.000000
vn 0.000000 0.000000 -1.000000
vn 0.000000 0.000000 -1.000000
vn 0.000000 0.000000 -1.000000
vn 0.000000 0.000000 -1.000000
vn 0.000000 0.000000 -1.000000
vn 0.000000 0.000000 -1.000000
vn 0.000000 0.000000 -1.000000
vn 0.000000 0.000000 -1.000000
vn 0.000000 0.000000 -1.000000
vn 0.000000 0.000000 -1.000000
vn 0.000000 0.000000 -1.000000
vn 0.000000 0.000000 -1.000000
vn -0.000000 0.000000 -1.000000
vn -0.000000 0.000000 -1.000000
vn -0.000000 0.000000 -1.000000
vn -0.000000 0.000000 -1.000000
vn 0.000000 1.000000 0.000000
vn 0.000000 1.000000 0.000000
vn 0.000000 1.000000 0.000000
vn 0.000000 1.000000 0.000000
vn 1.000000 0.000000 0.000000
vn 1.000000 0.000000 0.000000
vn 1.000000 0.000000 0.000000
vn 1.000000 0.000000 0.000000
vn 0.000000 -1.000000 0.000000
vn 0.000000 -1.000000 0.000000
vn 0.000000 -1.000000 0.000000
vn 0.000000 -1.000000 0.000000
vn -1.000000 0.000000 0.000000
vn -1.000000 0.000000 0.000000
vn -1.000000 0.000000 0.000000
vn -1.000000 0.000000 0.000000
s 1
g pCube1
usemtl initialShadingGroup
f 11/19/1 12/20/2 4/4/3 3/3/4
s off
f 41/63/5 42/64/6 43/65/7 44/66/8
s 2
f 5/5/9 6/6/10 9/15/11 10/18/12
s off
f 7/7/13 8/8/14 2/10/15 1/9/16
s 3
f 12/20/17 9/16/18 6/12/19 4/4/20
s 4
f 10/17/21 11/19/22 3/3/23 5/14/24
s off
f 26/39/25 25/40/26 27/41/27 28/42/28
f 28/43/29 29/44/30 30/45/31 26/46/32
f 29/44/33 31/47/34 32/48/35 30/45/36
f 31/47/37 27/49/38 25/50/39 32/48/40
f 58/83/41 57/84/42 59/85/43 60/86/44
f 48/71/45 49/72/46 50/73/47 46/74/48
f 49/72/49 51/75/50 52/76/51 50/73/52
f 51/75/53 47/77/54 45/78/55 52/76/56
f 34/51/57 33/52/58 35/53/59 36/54/60
f 36/55/61 37/56/62 38/57/63 34/58/64
f 37/56/65 39/59/66 40/60/67 38/57/68
f 39/59/69 35/61/70 33/62/71 40/60/72
f 22/36/73 21/33/74 8/8/75 7/7/76
f 7/13/77 1/1/78 23/37/79 22/35/80
f 1/1/81 2/2/82 24/38/83 23/37/84
f 2/2/85 8/11/86 21/34/87 24/38/88
s 5
f 10/18/89 9/15/90 25/40/91 26/39/92
s 6
f 13/21/93 14/24/94 28/42/95 27/41/96
f 14/23/94 15/25/97 29/44/98 28/43/95
s 5
f 11/19/99 10/17/89 26/46/92 30/45/100
s 6
f 15/25/97 16/26/101 31/47/102 29/44/98
s 5
f 12/20/103 11/19/99 30/45/100 32/48/104
s 6
f 16/26/101 13/22/93 27/49/96 31/47/102
s 5
f 9/16/90 12/20/103 32/48/104 25/50/91
s 7
f 18/30/105 17/27/106 33/52/107 34/51/108
s 8
f 21/33/109 22/36/110 36/54/111 35/53/112
f 22/35/110 23/37/113 37/56/114 36/55/111
s 7
f 19/31/115 18/29/105 34/58/108 38/57/116
s 8
f 23/37/113 24/38/117 39/59/118 37/56/114
s 7
f 20/32/119 19/31/115 38/57/116 40/60/120
s 8
f 24/38/117 21/34/109 35/61/112 39/59/118
s 7
f 17/28/106 20/32/119 40/60/120 33/62/107
s 1
f 3/3/4 4/4/3 42/64/121 41/63/122
s 3
f 4/4/20 6/6/19 43/65/123 42/64/124
s 2
f 6/6/10 5/5/9 44/66/125 43/65/126
s 4
f 5/5/24 3/3/23 41/63/127 44/66/128
s off
f 14/24/129 13/21/130 45/68/131 46/67/132
f 17/27/133 18/30/134 48/70/135 47/69/136
f 18/29/137 19/31/138 49/72/139 48/71/140
f 15/25/141 14/23/142 46/74/143 50/73/144
f 19/31/145 20/32/146 51/75/147 49/72/148
f 16/26/149 15/25/150 50/73/151 52/76/152
f 20/32/153 17/28/154 47/77/155 51/75/156
f 13/22/157 16/26/158 52/76/159 45/78/160
f 46/67/161 45/68/162 53/80/163 54/79/164
f 45/68/165 47/69/166 55/81/167 53/80/168
f 47/69/169 48/70/170 56/82/171 55/81/172
f 48/70/173 46/67/174 54/79/175 56/82/176
f 54/79/177 53/80/178 57/84/179 58/83/180
f 53/80/181 55/81/182 59/85/183 57/84/184
f 55/81/185 56/82/186 60/86/187 59/85/188
f 56/82/189 54/79/190 58/83/191 60/86/192
